<?xml version="1.0" standalone="no"?>
<!DOCTYPE svg PUBLIC "-//W3C//DTD SVG 20010904//EN"
 "http://www.w3.org/TR/2001/REC-SVG-20010904/DTD/svg10.dtd">
<svg version="1.0" xmlns="http://www.w3.org/2000/svg"
 width="256.000000pt" height="256.000000pt" viewBox="0 0 256.000000 256.000000"
 preserveAspectRatio="xMidYMid meet">

<g transform="translate(0.000000,256.000000) scale(0.100000,-0.100000)"
fill="#000000" stroke="none">
<path d="M1035 2304 c-109 -46 -202 -90 -206 -96 -4 -6 -5 -17 -2 -24 6 -18
108 -55 155 -58 50 -3 56 -12 25 -37 -23 -18 -27 -28 -27 -74 0 -30 -4 -56 -9
-59 -12 -8 -13 -143 -1 -165 6 -13 18 -16 40 -13 l31 4 -4 78 c-2 50 -9 85
-20 101 -22 31 -22 83 1 105 16 17 17 15 26 -37 10 -65 17 -75 64 -89 20 -7
67 -23 104 -37 l68 -26 67 31 c38 17 80 34 95 37 42 11 57 35 60 99 l3 58 92
37 c101 40 119 52 110 74 -7 19 -405 177 -443 176 -16 0 -119 -39 -229 -85z
m265 -94 c13 -9 13 -11 0 -20 -17 -11 -32 -12 -54 -4 -21 8 -20 21 2 27 28 8
36 7 52 -3z m-290 -291 c0 -5 -7 -9 -15 -9 -15 0 -20 12 -9 23 8 8 24 -1 24
-14z m8 -82 c2 -27 -1 -37 -11 -37 -14 0 -30 56 -20 73 11 18 28 -2 31 -36z"/>
<path d="M877 1383 c-17 -17 -1 -34 68 -75 85 -50 85 -44 -13 -102 -41 -25
-62 -44 -60 -54 5 -28 22 -23 113 31 120 71 121 83 5 154 -86 52 -101 58 -113
46z"/>
<path d="M1630 1361 c-25 -15 -66 -40 -92 -55 -72 -40 -69 -46 60 -128 78 -49
104 -56 110 -27 2 11 -16 27 -55 49 -32 18 -66 39 -76 48 -19 17 -12 22 96 82
25 14 37 27 35 38 -5 26 -29 24 -78 -7z"/>
<path d="M1197 1222 c-22 -25 -22 -75 1 -95 28 -26 151 -16 175 14 32 40 13
99 -33 99 -27 0 -36 -21 -15 -36 10 -7 15 -20 12 -29 -9 -21 -24 -19 -30 5 -7
28 -36 25 -47 -6 -6 -14 -14 -22 -20 -19 -14 9 -12 26 6 46 9 10 13 23 9 28
-10 17 -40 13 -58 -7z"/>
</g>
</svg>
